<svg xmlns="http://www.w3.org/2000/svg" viewBox="0 0 24 24" width="48" height="48" fill="#4CAF50">
  <path d="M20.285 2.859c-3.905 0-7.348 1.396-10.242 4.146C6.1 10.948 4.5 14.5 4.5 18.5c0 .828.672 1.5 1.5 1.5.828 0 1.5-.672 1.5-1.5 0-3.5 1.5-6.5 4.5-9.5 2.5-2.5 5.5-4 9-4 .828 0 1.5-.672 1.5-1.5s-.672-1.5-1.5-1.5zm-7.285 8.141c-2.5 2.5-4 5.5-4 9.5 0 .828.672 1.5 1.5 1.5.828 0 1.5-.672 1.5-1.5 0-3.5 1.5-6.5 4.5-9.5 2.5-2.5 5.5-4 9-4 .828 0 1.5-.672 1.5-1.5s-.672-1.5-1.5-1.5c-3.905 0-7.348 1.396-10.242 4.146z"/>
</svg> 